<mxfile host="Electron" modified="2024-02-26T12:43:47.878Z" agent="Mozilla/5.0 (Windows NT 10.0; Win64; x64) AppleWebKit/537.36 (KHTML, like Gecko) draw.io/22.1.2 Chrome/114.0.5735.289 Electron/25.9.4 Safari/537.36" etag="fPsD4zYwwOq5WzCdZZji" version="22.1.2" type="device">
  <diagram name="Page-1" id="wIZUU9E_AbacnY16icFT">
    <mxGraphModel dx="1691" dy="1685" grid="1" gridSize="10" guides="1" tooltips="1" connect="1" arrows="1" fold="1" page="1" pageScale="1" pageWidth="827" pageHeight="1169" math="0" shadow="0">
      <root>
        <mxCell id="0" />
        <mxCell id="1" parent="0" />
        <mxCell id="IXlQr3k1-wAIUMvVh51--2" value="&lt;font style=&quot;font-size: 14px;&quot;&gt;&lt;b&gt;Id_user&lt;/b&gt;&lt;/font&gt;" style="text;html=1;strokeColor=none;fillColor=none;align=center;verticalAlign=middle;whiteSpace=wrap;rounded=0;" parent="1" vertex="1">
          <mxGeometry x="563" y="247" width="60" height="30" as="geometry" />
        </mxCell>
        <mxCell id="IXlQr3k1-wAIUMvVh51--3" value="&lt;font style=&quot;font-size: 14px;&quot;&gt;&lt;b&gt;Id_mat&lt;/b&gt;&lt;/font&gt;" style="text;html=1;strokeColor=none;fillColor=none;align=center;verticalAlign=middle;whiteSpace=wrap;rounded=0;" parent="1" vertex="1">
          <mxGeometry x="16" y="376" width="60" height="30" as="geometry" />
        </mxCell>
        <mxCell id="IXlQr3k1-wAIUMvVh51--4" value="&lt;font style=&quot;font-size: 14px;&quot;&gt;&lt;b&gt;Id_log&lt;/b&gt;&lt;/font&gt;" style="text;html=1;strokeColor=none;fillColor=none;align=center;verticalAlign=middle;whiteSpace=wrap;rounded=0;" parent="1" vertex="1">
          <mxGeometry x="364" y="248" width="60" height="30" as="geometry" />
        </mxCell>
        <mxCell id="IXlQr3k1-wAIUMvVh51--5" value="&lt;font style=&quot;font-size: 14px;&quot;&gt;&lt;b&gt;Id_pan&lt;/b&gt;&lt;/font&gt;" style="text;html=1;strokeColor=none;fillColor=none;align=center;verticalAlign=middle;whiteSpace=wrap;rounded=0;" parent="1" vertex="1">
          <mxGeometry x="-100" y="254" width="51" height="24" as="geometry" />
        </mxCell>
        <mxCell id="IXlQr3k1-wAIUMvVh51--6" value="&lt;font style=&quot;font-size: 14px;&quot;&gt;&lt;b&gt;Id_typ_log&lt;/b&gt;&lt;/font&gt;" style="text;html=1;strokeColor=none;fillColor=none;align=center;verticalAlign=middle;whiteSpace=wrap;rounded=0;" parent="1" vertex="1">
          <mxGeometry x="510" y="376" width="60" height="30" as="geometry" />
        </mxCell>
        <mxCell id="IXlQr3k1-wAIUMvVh51--7" value="&lt;font face=&quot;Times New Roman&quot; style=&quot;font-size: 14px;&quot;&gt;&lt;b&gt;Id_invent&lt;/b&gt;&lt;/font&gt;" style="text;html=1;strokeColor=none;fillColor=none;align=center;verticalAlign=middle;whiteSpace=wrap;rounded=0;" parent="1" vertex="1">
          <mxGeometry x="148" y="248" width="60" height="30" as="geometry" />
        </mxCell>
        <mxCell id="IXlQr3k1-wAIUMvVh51--8" value="&lt;font style=&quot;font-size: 14px;&quot;&gt;&lt;b&gt;Id_typ_mat&lt;/b&gt;&lt;/font&gt;" style="text;html=1;strokeColor=none;fillColor=none;align=center;verticalAlign=middle;whiteSpace=wrap;rounded=0;" parent="1" vertex="1">
          <mxGeometry x="-71.5" y="457" width="80" height="30" as="geometry" />
        </mxCell>
        <mxCell id="IXlQr3k1-wAIUMvVh51--9" value="&lt;font style=&quot;font-size: 14px;&quot;&gt;&lt;b&gt;Id_emp&lt;/b&gt;&lt;/font&gt;" style="text;html=1;strokeColor=none;fillColor=none;align=center;verticalAlign=middle;whiteSpace=wrap;rounded=0;" parent="1" vertex="1">
          <mxGeometry x="301" y="455.5" width="60" height="30" as="geometry" />
        </mxCell>
        <mxCell id="IXlQr3k1-wAIUMvVh51--10" value="&lt;font style=&quot;font-size: 14px;&quot;&gt;&lt;b&gt;Id_role&lt;/b&gt;&lt;/font&gt;" style="text;html=1;strokeColor=none;fillColor=none;align=center;verticalAlign=middle;whiteSpace=wrap;rounded=0;" parent="1" vertex="1">
          <mxGeometry x="739" y="336.5" width="40" height="27" as="geometry" />
        </mxCell>
        <mxCell id="IXlQr3k1-wAIUMvVh51--14" value="&lt;font style=&quot;font-size: 12px;&quot;&gt;Etat&lt;/font&gt;" style="text;html=1;strokeColor=none;fillColor=none;align=center;verticalAlign=middle;whiteSpace=wrap;rounded=0;" parent="1" vertex="1">
          <mxGeometry x="132" y="100" width="40" height="30" as="geometry" />
        </mxCell>
        <mxCell id="IXlQr3k1-wAIUMvVh51--15" value="&lt;font style=&quot;font-size: 10px;&quot;&gt;Action_requise&lt;/font&gt;" style="text;html=1;strokeColor=none;fillColor=none;align=center;verticalAlign=middle;whiteSpace=wrap;rounded=0;" parent="1" vertex="1">
          <mxGeometry x="-161" y="284" width="73" height="18" as="geometry" />
        </mxCell>
        <mxCell id="IXlQr3k1-wAIUMvVh51--16" value="" style="strokeWidth=2;html=1;shape=mxgraph.flowchart.annotation_2;align=left;labelPosition=right;pointerEvents=1;" parent="1" vertex="1">
          <mxGeometry x="100" y="114" width="40" height="33" as="geometry" />
        </mxCell>
        <mxCell id="IXlQr3k1-wAIUMvVh51--17" value="" style="ellipse;whiteSpace=wrap;html=1;aspect=fixed;" parent="1" vertex="1">
          <mxGeometry x="87" y="170" width="30" height="30" as="geometry" />
        </mxCell>
        <mxCell id="IXlQr3k1-wAIUMvVh51--23" value="" style="endArrow=classic;html=1;rounded=0;" parent="1" edge="1">
          <mxGeometry width="50" height="50" relative="1" as="geometry">
            <mxPoint x="101" y="169" as="sourcePoint" />
            <mxPoint x="101" y="130" as="targetPoint" />
          </mxGeometry>
        </mxCell>
        <mxCell id="IXlQr3k1-wAIUMvVh51--27" value="" style="endArrow=classic;html=1;rounded=0;entryX=1;entryY=1;entryDx=0;entryDy=0;" parent="1" edge="1" target="IXlQr3k1-wAIUMvVh51--17">
          <mxGeometry width="50" height="50" relative="1" as="geometry">
            <mxPoint x="160" y="251" as="sourcePoint" />
            <mxPoint x="120" y="200" as="targetPoint" />
          </mxGeometry>
        </mxCell>
        <mxCell id="IXlQr3k1-wAIUMvVh51--32" value="&lt;font style=&quot;font-size: 12px;&quot;&gt;Observation&lt;/font&gt;" style="text;html=1;strokeColor=none;fillColor=none;align=center;verticalAlign=middle;whiteSpace=wrap;rounded=0;" parent="1" vertex="1">
          <mxGeometry x="134" y="133" width="86" height="30" as="geometry" />
        </mxCell>
        <mxCell id="IXlQr3k1-wAIUMvVh51--33" value="&lt;font style=&quot;font-size: 11px;&quot;&gt;Decision&lt;/font&gt;" style="text;html=1;strokeColor=none;fillColor=none;align=center;verticalAlign=middle;whiteSpace=wrap;rounded=0;" parent="1" vertex="1">
          <mxGeometry x="-71.5" y="295" width="46" height="10" as="geometry" />
        </mxCell>
        <mxCell id="IXlQr3k1-wAIUMvVh51--35" value="" style="curved=1;endArrow=classic;html=1;rounded=0;entryX=0.369;entryY=0.067;entryDx=0;entryDy=0;entryPerimeter=0;" parent="1" edge="1">
          <mxGeometry width="50" height="50" relative="1" as="geometry">
            <mxPoint x="31" y="384" as="sourcePoint" />
            <mxPoint x="-43.98000000000002" y="459.01" as="targetPoint" />
            <Array as="points">
              <mxPoint x="21" y="354" />
              <mxPoint x="-14" y="324" />
            </Array>
          </mxGeometry>
        </mxCell>
        <mxCell id="IXlQr3k1-wAIUMvVh51--39" value="" style="curved=1;endArrow=classic;html=1;rounded=0;" parent="1" edge="1">
          <mxGeometry width="50" height="50" relative="1" as="geometry">
            <mxPoint x="61" y="384" as="sourcePoint" />
            <mxPoint x="320" y="460" as="targetPoint" />
            <Array as="points">
              <mxPoint x="91" y="334" />
            </Array>
          </mxGeometry>
        </mxCell>
        <mxCell id="IXlQr3k1-wAIUMvVh51--41" value="" style="curved=1;endArrow=classic;html=1;rounded=0;" parent="1" edge="1">
          <mxGeometry width="50" height="50" relative="1" as="geometry">
            <mxPoint x="399.75" y="256" as="sourcePoint" />
            <mxPoint x="530.25" y="376" as="targetPoint" />
            <Array as="points">
              <mxPoint x="419.75" y="193" />
            </Array>
          </mxGeometry>
        </mxCell>
        <mxCell id="IXlQr3k1-wAIUMvVh51--44" value="&lt;font style=&quot;font-size: 9px;&quot;&gt;Date_invent&lt;/font&gt;" style="text;html=1;strokeColor=none;fillColor=none;align=center;verticalAlign=middle;whiteSpace=wrap;rounded=0;" parent="1" vertex="1">
          <mxGeometry x="131" y="281" width="60" height="21" as="geometry" />
        </mxCell>
        <mxCell id="IXlQr3k1-wAIUMvVh51--45" value="&lt;font style=&quot;font-size: 9px;&quot;&gt;Resp_invent&lt;/font&gt;" style="text;html=1;strokeColor=none;fillColor=none;align=center;verticalAlign=middle;whiteSpace=wrap;rounded=0;" parent="1" vertex="1">
          <mxGeometry x="147" y="300" width="70" height="20" as="geometry" />
        </mxCell>
        <mxCell id="IXlQr3k1-wAIUMvVh51--46" value="" style="endArrow=classic;html=1;rounded=0;" parent="1" edge="1">
          <mxGeometry width="50" height="50" relative="1" as="geometry">
            <mxPoint x="160" y="270" as="sourcePoint" />
            <mxPoint x="150" y="290" as="targetPoint" />
          </mxGeometry>
        </mxCell>
        <mxCell id="IXlQr3k1-wAIUMvVh51--48" value="" style="endArrow=classic;html=1;rounded=0;entryX=0.829;entryY=0.333;entryDx=0;entryDy=0;entryPerimeter=0;" parent="1" target="IXlQr3k1-wAIUMvVh51--45" edge="1">
          <mxGeometry width="50" height="50" relative="1" as="geometry">
            <mxPoint x="180" y="270" as="sourcePoint" />
            <mxPoint x="201" y="210.28932188134524" as="targetPoint" />
          </mxGeometry>
        </mxCell>
        <mxCell id="IXlQr3k1-wAIUMvVh51--49" value="&lt;p style=&quot;text-indent:-18.0pt;mso-list:l0 level1 lfo1&quot; class=&quot;MsoListParagraph&quot;&gt;&lt;font style=&quot;font-size: 10px;&quot;&gt;Email_emp&lt;/font&gt;&lt;/p&gt;" style="text;html=1;strokeColor=none;fillColor=none;align=center;verticalAlign=middle;whiteSpace=wrap;rounded=0;" parent="1" vertex="1">
          <mxGeometry x="272" y="529.5" width="80" as="geometry" />
        </mxCell>
        <mxCell id="IXlQr3k1-wAIUMvVh51--50" value="&lt;font style=&quot;font-size: 10px;&quot;&gt;Num_ser_mat&lt;/font&gt;" style="text;html=1;strokeColor=none;fillColor=none;align=center;verticalAlign=middle;whiteSpace=wrap;rounded=0;" parent="1" vertex="1">
          <mxGeometry x="67" y="405" width="60" height="20" as="geometry" />
        </mxCell>
        <mxCell id="IXlQr3k1-wAIUMvVh51--51" value="&lt;font style=&quot;font-size: 10px;&quot;&gt;Etat_mat&lt;/font&gt;" style="text;html=1;strokeColor=none;fillColor=none;align=center;verticalAlign=middle;whiteSpace=wrap;rounded=0;" parent="1" vertex="1">
          <mxGeometry x="-30" y="409" width="49" height="20" as="geometry" />
        </mxCell>
        <mxCell id="IXlQr3k1-wAIUMvVh51--52" value="&lt;font style=&quot;font-size: 10px;&quot;&gt;Fab_mat&lt;/font&gt;" style="text;html=1;strokeColor=none;fillColor=none;align=center;verticalAlign=middle;whiteSpace=wrap;rounded=0;" parent="1" vertex="1">
          <mxGeometry x="-21" y="426" width="50" height="20" as="geometry" />
        </mxCell>
        <mxCell id="IXlQr3k1-wAIUMvVh51--53" value="&lt;span style=&quot;text-indent: -24px;&quot;&gt;&lt;font style=&quot;font-size: 10px;&quot;&gt;Lib_mat&lt;/font&gt;&lt;/span&gt;" style="text;html=1;strokeColor=none;fillColor=none;align=center;verticalAlign=middle;whiteSpace=wrap;rounded=0;" parent="1" vertex="1">
          <mxGeometry x="7" y="440" width="40" height="20" as="geometry" />
        </mxCell>
        <mxCell id="IXlQr3k1-wAIUMvVh51--54" value="&lt;p style=&quot;text-indent:-18.0pt;mso-list:l0 level1 lfo1&quot; class=&quot;MsoListParagraph&quot;&gt;&lt;font style=&quot;font-size: 10px;&quot;&gt;Descrip_mat&lt;/font&gt;&lt;/p&gt;" style="text;html=1;strokeColor=none;fillColor=none;align=center;verticalAlign=middle;whiteSpace=wrap;rounded=0;" parent="1" vertex="1">
          <mxGeometry x="58" y="423" width="80" height="20" as="geometry" />
        </mxCell>
        <mxCell id="IXlQr3k1-wAIUMvVh51--61" value="&lt;p style=&quot;text-indent:-18.0pt;mso-list:l0 level1 lfo1&quot; class=&quot;MsoListParagraph&quot;&gt;&lt;font style=&quot;font-size: 10px;&quot;&gt;Poste_emp&lt;/font&gt;&lt;/p&gt;" style="text;html=1;strokeColor=none;fillColor=none;align=center;verticalAlign=middle;whiteSpace=wrap;rounded=0;" parent="1" vertex="1">
          <mxGeometry x="358" y="492.5" width="70" height="18" as="geometry" />
        </mxCell>
        <mxCell id="IXlQr3k1-wAIUMvVh51--62" value="&lt;p style=&quot;text-indent:-18.0pt;mso-list:l0 level1 lfo1&quot; class=&quot;MsoListParagraph&quot;&gt;&lt;font style=&quot;font-size: 10px;&quot;&gt;Nom_emp&lt;/font&gt;&lt;/p&gt;" style="text;html=1;strokeColor=none;fillColor=none;align=center;verticalAlign=middle;whiteSpace=wrap;rounded=0;" parent="1" vertex="1">
          <mxGeometry x="250" y="498.5" width="70" height="17" as="geometry" />
        </mxCell>
        <mxCell id="IXlQr3k1-wAIUMvVh51--68" value="&amp;nbsp;&lt;font style=&quot;font-size: 10px;&quot;&gt;User_password&lt;/font&gt;" style="text;html=1;strokeColor=none;fillColor=none;align=center;verticalAlign=middle;whiteSpace=wrap;rounded=0;" parent="1" vertex="1">
          <mxGeometry x="618" y="286" width="60" height="20" as="geometry" />
        </mxCell>
        <mxCell id="IXlQr3k1-wAIUMvVh51--69" value="&lt;font style=&quot;font-size: 10px;&quot;&gt;User_name&lt;/font&gt;" style="text;html=1;strokeColor=none;fillColor=none;align=center;verticalAlign=middle;whiteSpace=wrap;rounded=0;" parent="1" vertex="1">
          <mxGeometry x="544" y="301" width="58" height="24" as="geometry" />
        </mxCell>
        <mxCell id="IXlQr3k1-wAIUMvVh51--70" value="&amp;nbsp;&lt;font style=&quot;font-size: 10px;&quot;&gt;User_email&lt;/font&gt;" style="text;html=1;strokeColor=none;fillColor=none;align=center;verticalAlign=middle;whiteSpace=wrap;rounded=0;" parent="1" vertex="1">
          <mxGeometry x="574" y="288.93" width="108" height="50.14" as="geometry" />
        </mxCell>
        <mxCell id="IXlQr3k1-wAIUMvVh51--74" value="&lt;font style=&quot;font-size: 10px;&quot;&gt;lib_role&lt;/font&gt;" style="text;html=1;strokeColor=none;fillColor=none;align=center;verticalAlign=middle;whiteSpace=wrap;rounded=0;" parent="1" vertex="1">
          <mxGeometry x="739" y="370" width="50" height="27" as="geometry" />
        </mxCell>
        <mxCell id="IXlQr3k1-wAIUMvVh51--75" value="" style="endArrow=classic;html=1;rounded=0;entryX=0.5;entryY=0;entryDx=0;entryDy=0;" parent="1" edge="1">
          <mxGeometry width="50" height="50" relative="1" as="geometry">
            <mxPoint x="758" y="362" as="sourcePoint" />
            <mxPoint x="763" y="379" as="targetPoint" />
          </mxGeometry>
        </mxCell>
        <mxCell id="IXlQr3k1-wAIUMvVh51--76" value="&lt;font style=&quot;font-size: 10px;&quot;&gt;Lib_typ_mat&lt;/font&gt;" style="text;html=1;strokeColor=none;fillColor=none;align=center;verticalAlign=middle;whiteSpace=wrap;rounded=0;" parent="1" vertex="1">
          <mxGeometry x="-63" y="503" width="63" height="17" as="geometry" />
        </mxCell>
        <mxCell id="IXlQr3k1-wAIUMvVh51--77" value="" style="endArrow=classic;html=1;rounded=0;entryX=0.5;entryY=0;entryDx=0;entryDy=0;exitX=0.5;exitY=1;exitDx=0;exitDy=0;" parent="1" edge="1" target="IXlQr3k1-wAIUMvVh51--76" source="IXlQr3k1-wAIUMvVh51--8">
          <mxGeometry width="50" height="50" relative="1" as="geometry">
            <mxPoint x="-20" y="500" as="sourcePoint" />
            <mxPoint x="20" y="419" as="targetPoint" />
          </mxGeometry>
        </mxCell>
        <mxCell id="IXlQr3k1-wAIUMvVh51--78" value="&lt;font style=&quot;font-size: 10px;&quot;&gt;Diagn_pan&lt;/font&gt;" style="text;html=1;strokeColor=none;fillColor=none;align=center;verticalAlign=middle;whiteSpace=wrap;rounded=0;" parent="1" vertex="1">
          <mxGeometry x="-117" y="305" width="60" height="18" as="geometry" />
        </mxCell>
        <mxCell id="IXlQr3k1-wAIUMvVh51--85" value="&lt;p style=&quot;text-indent:-18.0pt;mso-list:l0 level1 lfo1&quot; class=&quot;MsoListParagraph&quot;&gt;&lt;font style=&quot;font-size: 10px;&quot;&gt;Date_expi&lt;/font&gt;&lt;/p&gt;" style="text;html=1;strokeColor=none;fillColor=none;align=center;verticalAlign=middle;whiteSpace=wrap;rounded=0;" parent="1" vertex="1">
          <mxGeometry x="385" y="343" width="70" height="14" as="geometry" />
        </mxCell>
        <mxCell id="IXlQr3k1-wAIUMvVh51--87" value="&lt;p style=&quot;text-indent:-18.0pt;mso-list:l0 level1 lfo1&quot; class=&quot;MsoListParagraph&quot;&gt;&lt;font style=&quot;font-size: 10px;&quot;&gt;Descrip_log&lt;/font&gt;&lt;/p&gt;" style="text;html=1;strokeColor=none;fillColor=none;align=center;verticalAlign=middle;whiteSpace=wrap;rounded=0;" parent="1" vertex="1">
          <mxGeometry x="330" y="305" width="72" height="15" as="geometry" />
        </mxCell>
        <mxCell id="IXlQr3k1-wAIUMvVh51--88" value="&lt;p style=&quot;text-indent:-18.0pt;mso-list:l0 level1 lfo1&quot; class=&quot;MsoListParagraph&quot;&gt;&lt;font style=&quot;font-size: 10px;&quot;&gt;Date_achat&lt;/font&gt;&lt;br&gt;&lt;/p&gt;" style="text;html=1;strokeColor=none;fillColor=none;align=center;verticalAlign=middle;whiteSpace=wrap;rounded=0;" parent="1" vertex="1">
          <mxGeometry x="423" y="313" width="74" height="30" as="geometry" />
        </mxCell>
        <mxCell id="IXlQr3k1-wAIUMvVh51--89" value="&lt;p style=&quot;text-indent:-18.0pt;mso-list:l0 level1 lfo1&quot; class=&quot;MsoListParagraph&quot;&gt;&lt;font style=&quot;font-size: 10px;&quot;&gt;Lib_log&lt;/font&gt;&lt;/p&gt;" style="text;html=1;strokeColor=none;fillColor=none;align=center;verticalAlign=middle;whiteSpace=wrap;rounded=0;" parent="1" vertex="1">
          <mxGeometry x="330" y="282" width="60" height="20" as="geometry" />
        </mxCell>
        <mxCell id="IXlQr3k1-wAIUMvVh51--90" value="&lt;p style=&quot;text-indent:-18.0pt;mso-list:l0 level1 lfo1&quot; class=&quot;MsoListParagraph&quot;&gt;&lt;font style=&quot;font-size: 10px;&quot;&gt;Vers_log&lt;/font&gt;&lt;/p&gt;" style="text;html=1;strokeColor=none;fillColor=none;align=center;verticalAlign=middle;whiteSpace=wrap;rounded=0;" parent="1" vertex="1">
          <mxGeometry x="361" y="326" width="48" height="14" as="geometry" />
        </mxCell>
        <mxCell id="IXlQr3k1-wAIUMvVh51--91" value="&lt;p style=&quot;text-indent:-18.0pt;mso-list:l0 level1 lfo1&quot; class=&quot;MsoListParagraph&quot;&gt;&lt;font style=&quot;font-size: 10px;&quot;&gt;Ed_log&lt;/font&gt;&lt;/p&gt;" style="text;html=1;strokeColor=none;fillColor=none;align=center;verticalAlign=middle;whiteSpace=wrap;rounded=0;" parent="1" vertex="1">
          <mxGeometry x="445" y="291" width="40" height="14" as="geometry" />
        </mxCell>
        <mxCell id="IXlQr3k1-wAIUMvVh51--102" value="&lt;font style=&quot;font-size: 10px;&quot;&gt;Lib_typ_log&lt;/font&gt;" style="text;html=1;strokeColor=none;fillColor=none;align=center;verticalAlign=middle;whiteSpace=wrap;rounded=0;" parent="1" vertex="1">
          <mxGeometry x="513" y="421" width="50" height="12" as="geometry" />
        </mxCell>
        <mxCell id="IXlQr3k1-wAIUMvVh51--104" value="&lt;span style=&quot;font-size: 10px;&quot;&gt;Mobilite&lt;/span&gt;" style="text;html=1;strokeColor=none;fillColor=none;align=center;verticalAlign=middle;whiteSpace=wrap;rounded=0;" parent="1" vertex="1">
          <mxGeometry x="37" y="451" width="50" height="20" as="geometry" />
        </mxCell>
        <mxCell id="IXlQr3k1-wAIUMvVh51--115" value="" style="endArrow=classic;html=1;rounded=0;entryX=0.5;entryY=0;entryDx=0;entryDy=0;" parent="1" target="IXlQr3k1-wAIUMvVh51--89" edge="1">
          <mxGeometry width="50" height="50" relative="1" as="geometry">
            <mxPoint x="369" y="275" as="sourcePoint" />
            <mxPoint x="419" y="225" as="targetPoint" />
          </mxGeometry>
        </mxCell>
        <mxCell id="IXlQr3k1-wAIUMvVh51--116" value="" style="endArrow=classic;html=1;rounded=0;entryX=0.5;entryY=0;entryDx=0;entryDy=0;" parent="1" target="IXlQr3k1-wAIUMvVh51--87" edge="1">
          <mxGeometry width="50" height="50" relative="1" as="geometry">
            <mxPoint x="379" y="275" as="sourcePoint" />
            <mxPoint x="429" y="225" as="targetPoint" />
          </mxGeometry>
        </mxCell>
        <mxCell id="IXlQr3k1-wAIUMvVh51--117" value="" style="endArrow=classic;html=1;rounded=0;" parent="1" edge="1">
          <mxGeometry width="50" height="50" relative="1" as="geometry">
            <mxPoint x="389" y="279" as="sourcePoint" />
            <mxPoint x="389" y="325" as="targetPoint" />
          </mxGeometry>
        </mxCell>
        <mxCell id="IXlQr3k1-wAIUMvVh51--118" value="" style="endArrow=classic;html=1;rounded=0;entryX=1;entryY=1;entryDx=0;entryDy=0;" parent="1" target="IXlQr3k1-wAIUMvVh51--90" edge="1">
          <mxGeometry width="50" height="50" relative="1" as="geometry">
            <mxPoint x="396" y="282" as="sourcePoint" />
            <mxPoint x="446" y="232" as="targetPoint" />
          </mxGeometry>
        </mxCell>
        <mxCell id="IXlQr3k1-wAIUMvVh51--119" value="" style="endArrow=classic;html=1;rounded=0;entryX=0;entryY=0.25;entryDx=0;entryDy=0;" parent="1" target="IXlQr3k1-wAIUMvVh51--88" edge="1">
          <mxGeometry width="50" height="50" relative="1" as="geometry">
            <mxPoint x="402" y="282" as="sourcePoint" />
            <mxPoint x="452" y="232" as="targetPoint" />
          </mxGeometry>
        </mxCell>
        <mxCell id="IXlQr3k1-wAIUMvVh51--120" value="" style="endArrow=classic;html=1;rounded=0;entryX=0;entryY=0;entryDx=0;entryDy=0;" parent="1" target="IXlQr3k1-wAIUMvVh51--91" edge="1">
          <mxGeometry width="50" height="50" relative="1" as="geometry">
            <mxPoint x="409" y="275" as="sourcePoint" />
            <mxPoint x="459" y="225" as="targetPoint" />
          </mxGeometry>
        </mxCell>
        <mxCell id="IXlQr3k1-wAIUMvVh51--121" value="&lt;span style=&quot;font-size: 10px;&quot;&gt;Accord_sortie&lt;/span&gt;" style="text;html=1;strokeColor=none;fillColor=none;align=center;verticalAlign=middle;whiteSpace=wrap;rounded=0;" parent="1" vertex="1">
          <mxGeometry x="325" y="508.5" width="56" height="20" as="geometry" />
        </mxCell>
        <mxCell id="IXlQr3k1-wAIUMvVh51--124" value="&lt;font style=&quot;font-size: 10px;&quot;&gt;Status&lt;/font&gt;" style="text;html=1;strokeColor=none;fillColor=none;align=center;verticalAlign=middle;whiteSpace=wrap;rounded=0;" parent="1" vertex="1">
          <mxGeometry x="548" y="293" width="24" height="13" as="geometry" />
        </mxCell>
        <mxCell id="QpquhIABm7qEgHIS8oee-9" value="" style="endArrow=classic;html=1;rounded=0;" edge="1" parent="1">
          <mxGeometry width="50" height="50" relative="1" as="geometry">
            <mxPoint x="608" y="270" as="sourcePoint" />
            <mxPoint x="638" y="290" as="targetPoint" />
          </mxGeometry>
        </mxCell>
        <mxCell id="QpquhIABm7qEgHIS8oee-12" value="" style="endArrow=classic;html=1;rounded=0;exitX=0.65;exitY=0.033;exitDx=0;exitDy=0;exitPerimeter=0;entryX=0;entryY=1;entryDx=0;entryDy=0;" edge="1" parent="1" target="IXlQr3k1-wAIUMvVh51--17">
          <mxGeometry width="50" height="50" relative="1" as="geometry">
            <mxPoint x="51" y="384.99" as="sourcePoint" />
            <mxPoint x="100" y="210" as="targetPoint" />
          </mxGeometry>
        </mxCell>
        <mxCell id="QpquhIABm7qEgHIS8oee-18" value="" style="endArrow=classic;html=1;rounded=0;entryX=0.5;entryY=0;entryDx=0;entryDy=0;" edge="1" parent="1">
          <mxGeometry width="50" height="50" relative="1" as="geometry">
            <mxPoint x="540" y="401" as="sourcePoint" />
            <mxPoint x="535" y="421" as="targetPoint" />
          </mxGeometry>
        </mxCell>
        <mxCell id="QpquhIABm7qEgHIS8oee-19" value="" style="endArrow=classic;html=1;rounded=0;entryX=0.5;entryY=0;entryDx=0;entryDy=0;" edge="1" parent="1" target="IXlQr3k1-wAIUMvVh51--124">
          <mxGeometry width="50" height="50" relative="1" as="geometry">
            <mxPoint x="576" y="268" as="sourcePoint" />
            <mxPoint x="626" y="218" as="targetPoint" />
          </mxGeometry>
        </mxCell>
        <mxCell id="QpquhIABm7qEgHIS8oee-21" value="" style="endArrow=classic;html=1;rounded=0;entryX=1.292;entryY=1.308;entryDx=0;entryDy=0;entryPerimeter=0;" edge="1" parent="1" target="IXlQr3k1-wAIUMvVh51--124">
          <mxGeometry width="50" height="50" relative="1" as="geometry">
            <mxPoint x="582" y="273" as="sourcePoint" />
            <mxPoint x="632" y="223" as="targetPoint" />
          </mxGeometry>
        </mxCell>
        <mxCell id="QpquhIABm7qEgHIS8oee-22" value="" style="endArrow=classic;html=1;rounded=0;" edge="1" parent="1">
          <mxGeometry width="50" height="50" relative="1" as="geometry">
            <mxPoint x="598" y="270" as="sourcePoint" />
            <mxPoint x="608" y="310" as="targetPoint" />
          </mxGeometry>
        </mxCell>
        <mxCell id="QpquhIABm7qEgHIS8oee-26" value="" style="endArrow=classic;html=1;rounded=0;" edge="1" parent="1">
          <mxGeometry width="50" height="50" relative="1" as="geometry">
            <mxPoint x="24" y="402" as="sourcePoint" />
            <mxPoint x="10" y="414" as="targetPoint" />
          </mxGeometry>
        </mxCell>
        <mxCell id="QpquhIABm7qEgHIS8oee-27" value="" style="endArrow=classic;html=1;rounded=0;" edge="1" parent="1">
          <mxGeometry width="50" height="50" relative="1" as="geometry">
            <mxPoint x="34" y="400" as="sourcePoint" />
            <mxPoint x="20" y="430" as="targetPoint" />
          </mxGeometry>
        </mxCell>
        <mxCell id="QpquhIABm7qEgHIS8oee-28" value="" style="endArrow=classic;html=1;rounded=0;" edge="1" parent="1">
          <mxGeometry width="50" height="50" relative="1" as="geometry">
            <mxPoint x="60" y="400" as="sourcePoint" />
            <mxPoint x="70" y="410" as="targetPoint" />
          </mxGeometry>
        </mxCell>
        <mxCell id="QpquhIABm7qEgHIS8oee-29" value="" style="endArrow=classic;html=1;rounded=0;" edge="1" parent="1">
          <mxGeometry width="50" height="50" relative="1" as="geometry">
            <mxPoint x="54" y="400" as="sourcePoint" />
            <mxPoint x="70" y="430" as="targetPoint" />
          </mxGeometry>
        </mxCell>
        <mxCell id="QpquhIABm7qEgHIS8oee-30" value="" style="endArrow=classic;html=1;rounded=0;entryX=0.75;entryY=0;entryDx=0;entryDy=0;" edge="1" parent="1" target="IXlQr3k1-wAIUMvVh51--53">
          <mxGeometry width="50" height="50" relative="1" as="geometry">
            <mxPoint x="40" y="400" as="sourcePoint" />
            <mxPoint x="90" y="350" as="targetPoint" />
          </mxGeometry>
        </mxCell>
        <mxCell id="QpquhIABm7qEgHIS8oee-31" value="" style="endArrow=classic;html=1;rounded=0;entryX=0.5;entryY=0;entryDx=0;entryDy=0;" edge="1" parent="1">
          <mxGeometry width="50" height="50" relative="1" as="geometry">
            <mxPoint x="48" y="400" as="sourcePoint" />
            <mxPoint x="60" y="451" as="targetPoint" />
          </mxGeometry>
        </mxCell>
        <mxCell id="QpquhIABm7qEgHIS8oee-37" value="" style="curved=1;endArrow=classic;html=1;rounded=0;exitX=0.5;exitY=0;exitDx=0;exitDy=0;" edge="1" parent="1">
          <mxGeometry width="50" height="50" relative="1" as="geometry">
            <mxPoint x="-74" y="259" as="sourcePoint" />
            <mxPoint x="40" y="390" as="targetPoint" />
            <Array as="points">
              <mxPoint x="-10" y="217" />
            </Array>
          </mxGeometry>
        </mxCell>
        <mxCell id="QpquhIABm7qEgHIS8oee-38" value="" style="curved=1;endArrow=classic;html=1;rounded=0;entryX=0.5;entryY=0;entryDx=0;entryDy=0;" edge="1" parent="1" target="IXlQr3k1-wAIUMvVh51--10">
          <mxGeometry width="50" height="50" relative="1" as="geometry">
            <mxPoint x="590" y="256" as="sourcePoint" />
            <mxPoint x="749" y="326.5" as="targetPoint" />
            <Array as="points">
              <mxPoint x="610" y="193" />
            </Array>
          </mxGeometry>
        </mxCell>
        <mxCell id="QpquhIABm7qEgHIS8oee-39" value="" style="curved=1;endArrow=classic;html=1;rounded=0;entryX=0.75;entryY=0;entryDx=0;entryDy=0;" edge="1" parent="1" target="IXlQr3k1-wAIUMvVh51--9">
          <mxGeometry width="50" height="50" relative="1" as="geometry">
            <mxPoint x="171" y="255" as="sourcePoint" />
            <mxPoint x="320" y="460" as="targetPoint" />
            <Array as="points">
              <mxPoint x="191" y="192" />
            </Array>
          </mxGeometry>
        </mxCell>
        <mxCell id="QpquhIABm7qEgHIS8oee-41" value="" style="ellipse;whiteSpace=wrap;html=1;aspect=fixed;" vertex="1" parent="1">
          <mxGeometry x="90" y="20" width="30" height="30" as="geometry" />
        </mxCell>
        <mxCell id="QpquhIABm7qEgHIS8oee-42" value="" style="endArrow=classic;html=1;rounded=0;entryX=0;entryY=1;entryDx=0;entryDy=0;" edge="1" parent="1" target="QpquhIABm7qEgHIS8oee-41">
          <mxGeometry width="50" height="50" relative="1" as="geometry">
            <mxPoint x="46" y="385" as="sourcePoint" />
            <mxPoint x="100" y="60" as="targetPoint" />
          </mxGeometry>
        </mxCell>
        <mxCell id="QpquhIABm7qEgHIS8oee-43" value="" style="endArrow=classic;html=1;rounded=0;entryX=1;entryY=1;entryDx=0;entryDy=0;" edge="1" parent="1" target="QpquhIABm7qEgHIS8oee-41">
          <mxGeometry width="50" height="50" relative="1" as="geometry">
            <mxPoint x="391" y="254" as="sourcePoint" />
            <mxPoint x="441" y="204" as="targetPoint" />
          </mxGeometry>
        </mxCell>
        <mxCell id="QpquhIABm7qEgHIS8oee-44" value="" style="endArrow=classic;html=1;rounded=0;" edge="1" parent="1">
          <mxGeometry width="50" height="50" relative="1" as="geometry">
            <mxPoint x="106" y="20" as="sourcePoint" />
            <mxPoint x="106" y="-10" as="targetPoint" />
          </mxGeometry>
        </mxCell>
        <mxCell id="QpquhIABm7qEgHIS8oee-45" value="Date_Instal" style="text;html=1;strokeColor=none;fillColor=none;align=center;verticalAlign=middle;whiteSpace=wrap;rounded=0;" vertex="1" parent="1">
          <mxGeometry x="78" y="-32" width="60" height="30" as="geometry" />
        </mxCell>
        <mxCell id="QpquhIABm7qEgHIS8oee-48" value="" style="endArrow=classic;html=1;rounded=0;entryX=0.25;entryY=0;entryDx=0;entryDy=0;" edge="1" parent="1" target="IXlQr3k1-wAIUMvVh51--121">
          <mxGeometry width="50" height="50" relative="1" as="geometry">
            <mxPoint x="330" y="480" as="sourcePoint" />
            <mxPoint x="380" y="430" as="targetPoint" />
          </mxGeometry>
        </mxCell>
        <mxCell id="QpquhIABm7qEgHIS8oee-49" value="" style="endArrow=classic;html=1;rounded=0;entryX=0.25;entryY=0;entryDx=0;entryDy=0;" edge="1" parent="1" target="IXlQr3k1-wAIUMvVh51--61">
          <mxGeometry width="50" height="50" relative="1" as="geometry">
            <mxPoint x="340" y="480" as="sourcePoint" />
            <mxPoint x="390" y="430" as="targetPoint" />
          </mxGeometry>
        </mxCell>
        <mxCell id="QpquhIABm7qEgHIS8oee-52" value="" style="endArrow=classic;html=1;rounded=0;entryX=0.5;entryY=0;entryDx=0;entryDy=0;" edge="1" parent="1" target="IXlQr3k1-wAIUMvVh51--62">
          <mxGeometry width="50" height="50" relative="1" as="geometry">
            <mxPoint x="305" y="480" as="sourcePoint" />
            <mxPoint x="355" y="430" as="targetPoint" />
          </mxGeometry>
        </mxCell>
        <mxCell id="QpquhIABm7qEgHIS8oee-53" value="" style="endArrow=classic;html=1;rounded=0;" edge="1" parent="1">
          <mxGeometry width="50" height="50" relative="1" as="geometry">
            <mxPoint x="310" y="480" as="sourcePoint" />
            <mxPoint x="310" y="520" as="targetPoint" />
          </mxGeometry>
        </mxCell>
      </root>
    </mxGraphModel>
  </diagram>
</mxfile>
